<?xml version="1.0" encoding="UTF-8" standalone="no"?>
<svg
   height="768"
   width="1024"
   version="1.1"
   id="svg99362"
   sodipodi:docname="Flag_of_NATO.svg"
   inkscape:version="1.2.2 (b0a8486541, 2022-12-01)"
   xmlns:inkscape="http://www.inkscape.org/namespaces/inkscape"
   xmlns:sodipodi="http://sodipodi.sourceforge.net/DTD/sodipodi-0.dtd"
   xmlns="http://www.w3.org/2000/svg"
   xmlns:svg="http://www.w3.org/2000/svg">
  <defs
     id="defs99366">
    <clipPath
       id="p"
       clipPathUnits="userSpaceOnUse">
            <path
   d="m 382.829,777.026 c -4.488,0 -8.125,-3.776 -8.125,-8.435 v -11.245 c 0,-4.658 3.637,-8.434 8.125,-8.434 h 37.913 c 4.487,0 8.124,3.776 8.124,8.434 v 11.245 c 0,4.659 -3.637,8.435 -8.124,8.435 z"
   id="path109518" />

        </clipPath>
  </defs>
  <sodipodi:namedview
     id="namedview99364"
     pagecolor="#ffffff"
     bordercolor="#000000"
     borderopacity="0.25"
     inkscape:showpageshadow="2"
     inkscape:pageopacity="0.0"
     inkscape:pagecheckerboard="0"
     inkscape:deskcolor="#d1d1d1"
     showgrid="false"
     inkscape:zoom="2.9086013"
     inkscape:cx="447.12212"
     inkscape:cy="374.06295"
     inkscape:window-width="2560"
     inkscape:window-height="1006"
     inkscape:window-x="0"
     inkscape:window-y="0"
     inkscape:window-maximized="1"
     inkscape:current-layer="svg99362" />
  <g
     id="g110620"
     inkscape:export-filename="../src/svg/moved-nato.svg"
     inkscape:export-xdpi="96"
     inkscape:export-ydpi="96">
    <g
       id="g109739"
       transform="matrix(0.07512476,0,0,0.07512476,473.53613,355.1521)"
       inkscape:export-filename="moved-nato.svg"
       inkscape:export-xdpi="96"
       inkscape:export-ydpi="96">
      <path
         style="fill:#004990;fill-opacity:1"
         d="M 0,0 H 1024 V 768 H 0 Z"
         id="path99358" />
      <path
         d="m 730.1,387.8 v -8.6 h 217.6 v 8.6 z m -652.8,0 v -8.6 h 217.6 v 8.6 z m 430.9,213.3 h 8.6 v 89.6 h -8.6 z m 0,-524.8 h 8.6 v 89.6 h -8.6 z M 703.6,383.2 H 512.3 l 34.5,-36 -30.2,-135.5 c 0,-1.5 1.4,-1.5 1.4,0 l 40.3,126.8 z M 657.5,357.3 C 647.5,296.7 600,247.7 538.1,236.2 l 4.4,11.5 c 51.8,11.5 93.5,53.3 105,106.7 z M 512.3,573.5 V 383.2 l 34.5,33.2 136.6,-28.9 c 0,0 1.5,1.5 0,1.5 l -128,40.3 z m 24.4,-44.7 c 61.9,-10.1 110.8,-59.1 120.8,-119.6 l -11.5,4.3 c -11.5,51.9 -53.2,93.7 -105,103.8 z M 320.9,383.2 h 191.4 l -34.6,34.6 30.2,135.5 c 0,1.5 -1.4,1.5 -1.4,0 L 466.2,426.5 Z m 46.1,24.5 c 10,60.6 57.5,109.6 119.4,121.1 L 482,517.3 C 430.3,505.7 388.5,463.9 377,410.6 Z M 512.3,191.5 v 191.7 l -34.6,-34.6 -136.6,28.8 c 0,0 -1.5,-1.4 0,-1.4 l 128,-40.4 z m -24.5,44.7 C 425.9,246.3 377,295.3 367,355.8 l 11.5,-4.3 c 11.5,-51.9 53.2,-93.7 105,-103.8 z"
         fill="#ffffff"
         id="path99360" />
    </g>
    <g
       clip-path="url(#p)"
       transform="matrix(1.3333203,0,0,-1.3333203,-23.70809,1401.2821)"
       id="g109562"
       style="opacity:0.75">
        <path
   d="M -31.59,-15.312 H 25.103 V 13.034 H -31.59 Z"
   style="fill:#33b540;fill-opacity:1;fill-rule:nonzero;stroke:none"
   transform="matrix(0.95536,0,0,-0.9918,404.884,761.84)"
   id="path109548" />

        <path
   d="M 0,0 H 56.693 V 28.346 H 0 Z"
   style="fill:none;stroke:#33b540;stroke-width:17.008;stroke-linecap:round;stroke-linejoin:round;stroke-miterlimit:10;stroke-dasharray:none;stroke-opacity:1"
   transform="matrix(0.95536,0,0,-0.9918,374.704,777.026)"
   id="path109550" />

        <path
   d="M 0,0 H 2.784 L 4.095,9.503 5.406,0 H 8.189 V 13.095 H 6.322 V 3.18 L 4.849,13.095 H 3.197 L 1.725,3.18 v 9.915 H 0 Z"
   style="fill:#231f20;fill-opacity:1;fill-rule:nonzero;stroke:none"
   transform="matrix(0.95536,0,0,-0.9918,384.627,769.648)"
   id="path109552" />

        <path
   d="m 0,0 v -7.146 c 0,-0.935 -0.395,-1.291 -1.023,-1.291 -0.629,0 -1.024,0.356 -1.024,1.291 V 0 c 0,0.936 0.395,1.291 1.024,1.291 C -0.395,1.291 0,0.936 0,0 m -4.022,-0.131 v -6.884 c 0,-2.095 1.059,-3.293 2.999,-3.293 1.939,0 2.999,1.198 2.999,3.293 v 6.884 c 0,2.096 -1.06,3.293 -2.999,3.293 -1.939,0 -2.999,-1.197 -2.999,-3.293"
   style="fill:#231f20;fill-opacity:1;fill-rule:nonzero;stroke:none"
   transform="matrix(0.95536,0,0,-0.9918,397.56,759.61)"
   id="path109554" />

        <path
   d="M 0,0 H 1.993 L 3.305,10.289 4.615,0 H 6.43 L 4.525,13.095 H 1.903 Z"
   style="fill:#231f20;fill-opacity:1;fill-rule:nonzero;stroke:none"
   transform="matrix(0.95536,0,0,-0.9918,400.182,769.648)"
   id="path109556" />

        <path
   d="M 0,0 H 5.388 V 1.87 H 1.976 V 5.331 H 4.687 V 7.202 H 1.976 v 4.022 h 3.412 v 1.871 H 0 Z"
   style="fill:#231f20;fill-opacity:1;fill-rule:nonzero;stroke:none"
   transform="matrix(0.95536,0,0,-0.9918,407.231,769.648)"
   id="path109558" />

        <path
   d="m 0,0 c 0.629,0 1.006,-0.336 1.006,-1.271 v -6.81 C 1.006,-9.017 0.629,-9.354 0,-9.354 H -1.006 V 0 Z m -2.981,-11.224 h 3.017 c 1.976,0 2.945,1.141 2.945,3.237 v 6.622 c 0,2.094 -0.969,3.236 -2.945,3.236 h -3.017 z"
   style="fill:#231f20;fill-opacity:1;fill-rule:nonzero;stroke:none"
   transform="matrix(0.95536,0,0,-0.9918,416.236,758.516)"
   id="path109560" />

    </g>
  </g>
  <g
     id="g110607"
     inkscape:export-filename="../src/svg/moved-russia.svg"
     inkscape:export-xdpi="96"
     inkscape:export-ydpi="96">
    <g
       id="g109791"
       transform="matrix(8.5475,0,0,8.5475,660.62794,323.32378)"
       inkscape:export-filename="moved-russia.svg"
       inkscape:export-xdpi="96"
       inkscape:export-ydpi="96">
      <path
         fill="#ffffff"
         d="M 0,0 H 9 V 3 H 0 Z"
         id="path99229" />
      <path
         fill="#d52b1e"
         d="M 0,3 H 9 V 6 H 0 Z"
         id="path99231" />
      <path
         fill="#0039a6"
         d="M 0,2 H 9 V 4 H 0 Z"
         id="path99233" />
    </g>
    <g
       clip-path="url(#p)"
       transform="matrix(1.3333203,0,0,-1.3333203,163.38359,1366.2483)"
       id="g109852"
       style="opacity:0.75">
        <path
   d="M -31.59,-15.312 H 25.103 V 13.034 H -31.59 Z"
   style="fill:#33b540;fill-opacity:1;fill-rule:nonzero;stroke:none"
   transform="matrix(0.95536,0,0,-0.9918,404.884,761.84)"
   id="path109838" />

        <path
   d="M 0,0 H 56.693 V 28.346 H 0 Z"
   style="fill:none;stroke:#33b540;stroke-width:17.008;stroke-linecap:round;stroke-linejoin:round;stroke-miterlimit:10;stroke-dasharray:none;stroke-opacity:1"
   transform="matrix(0.95536,0,0,-0.9918,374.704,777.026)"
   id="path109840" />

        <path
   d="M 0,0 H 2.784 L 4.095,9.503 5.406,0 H 8.189 V 13.095 H 6.322 V 3.18 L 4.849,13.095 H 3.197 L 1.725,3.18 v 9.915 H 0 Z"
   style="fill:#231f20;fill-opacity:1;fill-rule:nonzero;stroke:none"
   transform="matrix(0.95536,0,0,-0.9918,384.627,769.648)"
   id="path109842" />

        <path
   d="m 0,0 v -7.146 c 0,-0.935 -0.395,-1.291 -1.023,-1.291 -0.629,0 -1.024,0.356 -1.024,1.291 V 0 c 0,0.936 0.395,1.291 1.024,1.291 C -0.395,1.291 0,0.936 0,0 m -4.022,-0.131 v -6.884 c 0,-2.095 1.059,-3.293 2.999,-3.293 1.939,0 2.999,1.198 2.999,3.293 v 6.884 c 0,2.096 -1.06,3.293 -2.999,3.293 -1.939,0 -2.999,-1.197 -2.999,-3.293"
   style="fill:#231f20;fill-opacity:1;fill-rule:nonzero;stroke:none"
   transform="matrix(0.95536,0,0,-0.9918,397.56,759.61)"
   id="path109844" />

        <path
   d="M 0,0 H 1.993 L 3.305,10.289 4.615,0 H 6.43 L 4.525,13.095 H 1.903 Z"
   style="fill:#231f20;fill-opacity:1;fill-rule:nonzero;stroke:none"
   transform="matrix(0.95536,0,0,-0.9918,400.182,769.648)"
   id="path109846" />

        <path
   d="M 0,0 H 5.388 V 1.87 H 1.976 V 5.331 H 4.687 V 7.202 H 1.976 v 4.022 h 3.412 v 1.871 H 0 Z"
   style="fill:#231f20;fill-opacity:1;fill-rule:nonzero;stroke:none"
   transform="matrix(0.95536,0,0,-0.9918,407.231,769.648)"
   id="path109848" />

        <path
   d="m 0,0 c 0.629,0 1.006,-0.336 1.006,-1.271 v -6.81 C 1.006,-9.017 0.629,-9.354 0,-9.354 H -1.006 V 0 Z m -2.981,-11.224 h 3.017 c 1.976,0 2.945,1.141 2.945,3.237 v 6.622 c 0,2.094 -0.969,3.236 -2.945,3.236 h -3.017 z"
   style="fill:#231f20;fill-opacity:1;fill-rule:nonzero;stroke:none"
   transform="matrix(0.95536,0,0,-0.9918,416.236,758.516)"
   id="path109850" />

    </g>
  </g>
  <g
     clip-path="url(#p)"
     transform="matrix(1.3333203,0,0,-1.3333203,-40.436532,1238.0496)"
     id="g109876">
        <path
   d="M -31.59,-15.312 H 25.103 V 13.034 H -31.59 Z"
   style="fill:#33b540;fill-opacity:1;fill-rule:nonzero;stroke:none"
   transform="matrix(0.95536,0,0,-0.9918,404.884,761.84)"
   id="path109862" />

        <path
   d="M 0,0 H 56.693 V 28.346 H 0 Z"
   style="fill:none;stroke:#33b540;stroke-width:17.008;stroke-linecap:round;stroke-linejoin:round;stroke-miterlimit:10;stroke-dasharray:none;stroke-opacity:1"
   transform="matrix(0.95536,0,0,-0.9918,374.704,777.026)"
   id="path109864" />

        <path
   d="M 0,0 H 2.784 L 4.095,9.503 5.406,0 H 8.189 V 13.095 H 6.322 V 3.18 L 4.849,13.095 H 3.197 L 1.725,3.18 v 9.915 H 0 Z"
   style="fill:#231f20;fill-opacity:1;fill-rule:nonzero;stroke:none"
   transform="matrix(0.95536,0,0,-0.9918,384.627,769.648)"
   id="path109866" />

        <path
   d="m 0,0 v -7.146 c 0,-0.935 -0.395,-1.291 -1.023,-1.291 -0.629,0 -1.024,0.356 -1.024,1.291 V 0 c 0,0.936 0.395,1.291 1.024,1.291 C -0.395,1.291 0,0.936 0,0 m -4.022,-0.131 v -6.884 c 0,-2.095 1.059,-3.293 2.999,-3.293 1.939,0 2.999,1.198 2.999,3.293 v 6.884 c 0,2.096 -1.06,3.293 -2.999,3.293 -1.939,0 -2.999,-1.197 -2.999,-3.293"
   style="fill:#231f20;fill-opacity:1;fill-rule:nonzero;stroke:none"
   transform="matrix(0.95536,0,0,-0.9918,397.56,759.61)"
   id="path109868" />

        <path
   d="M 0,0 H 1.993 L 3.305,10.289 4.615,0 H 6.43 L 4.525,13.095 H 1.903 Z"
   style="fill:#231f20;fill-opacity:1;fill-rule:nonzero;stroke:none"
   transform="matrix(0.95536,0,0,-0.9918,400.182,769.648)"
   id="path109870" />

        <path
   d="M 0,0 H 5.388 V 1.87 H 1.976 V 5.331 H 4.687 V 7.202 H 1.976 v 4.022 h 3.412 v 1.871 H 0 Z"
   style="fill:#231f20;fill-opacity:1;fill-rule:nonzero;stroke:none"
   transform="matrix(0.95536,0,0,-0.9918,407.231,769.648)"
   id="path109872" />

        <path
   d="m 0,0 c 0.629,0 1.006,-0.336 1.006,-1.271 v -6.81 C 1.006,-9.017 0.629,-9.354 0,-9.354 H -1.006 V 0 Z m -2.981,-11.224 h 3.017 c 1.976,0 2.945,1.141 2.945,3.237 v 6.622 c 0,2.094 -0.969,3.236 -2.945,3.236 h -3.017 z"
   style="fill:#231f20;fill-opacity:1;fill-rule:nonzero;stroke:none"
   transform="matrix(0.95536,0,0,-0.9918,416.236,758.516)"
   id="path109874" />

    </g>
  <g
     id="g109860"
     transform="matrix(3.7135541,0,0,3.7135541,497.95722,217.2287)"
     style="opacity:0.7">
    <path
       fill="#ffffff"
       d="M 0,0 H 9 V 3 H 0 Z"
       id="path109854" />
    <path
       fill="#d52b1e"
       d="M 0,3 H 9 V 6 H 0 Z"
       id="path109856" />
    <path
       fill="#0039a6"
       d="M 0,2 H 9 V 4 H 0 Z"
       id="path109858" />
  </g>
  <g
     clip-path="url(#p)"
     transform="matrix(1.3333203,0,0,-1.3333203,52.192492,1237.6115)"
     id="g110261">
        <path
   d="M -31.59,-15.312 H 25.103 V 13.034 H -31.59 Z"
   style="fill:#33b540;fill-opacity:1;fill-rule:nonzero;stroke:none"
   transform="matrix(0.95536,0,0,-0.9918,404.884,761.84)"
   id="path110247" />

        <path
   d="M 0,0 H 56.693 V 28.346 H 0 Z"
   style="fill:none;stroke:#33b540;stroke-width:17.008;stroke-linecap:round;stroke-linejoin:round;stroke-miterlimit:10;stroke-dasharray:none;stroke-opacity:1"
   transform="matrix(0.95536,0,0,-0.9918,374.704,777.026)"
   id="path110249" />

        <path
   d="M 0,0 H 2.784 L 4.095,9.503 5.406,0 H 8.189 V 13.095 H 6.322 V 3.18 L 4.849,13.095 H 3.197 L 1.725,3.18 v 9.915 H 0 Z"
   style="fill:#231f20;fill-opacity:1;fill-rule:nonzero;stroke:none"
   transform="matrix(0.95536,0,0,-0.9918,384.627,769.648)"
   id="path110251" />

        <path
   d="m 0,0 v -7.146 c 0,-0.935 -0.395,-1.291 -1.023,-1.291 -0.629,0 -1.024,0.356 -1.024,1.291 V 0 c 0,0.936 0.395,1.291 1.024,1.291 C -0.395,1.291 0,0.936 0,0 m -4.022,-0.131 v -6.884 c 0,-2.095 1.059,-3.293 2.999,-3.293 1.939,0 2.999,1.198 2.999,3.293 v 6.884 c 0,2.096 -1.06,3.293 -2.999,3.293 -1.939,0 -2.999,-1.197 -2.999,-3.293"
   style="fill:#231f20;fill-opacity:1;fill-rule:nonzero;stroke:none"
   transform="matrix(0.95536,0,0,-0.9918,397.56,759.61)"
   id="path110253" />

        <path
   d="M 0,0 H 1.993 L 3.305,10.289 4.615,0 H 6.43 L 4.525,13.095 H 1.903 Z"
   style="fill:#231f20;fill-opacity:1;fill-rule:nonzero;stroke:none"
   transform="matrix(0.95536,0,0,-0.9918,400.182,769.648)"
   id="path110255" />

        <path
   d="M 0,0 H 5.388 V 1.87 H 1.976 V 5.331 H 4.687 V 7.202 H 1.976 v 4.022 h 3.412 v 1.871 H 0 Z"
   style="fill:#231f20;fill-opacity:1;fill-rule:nonzero;stroke:none"
   transform="matrix(0.95536,0,0,-0.9918,407.231,769.648)"
   id="path110257" />

        <path
   d="m 0,0 c 0.629,0 1.006,-0.336 1.006,-1.271 v -6.81 C 1.006,-9.017 0.629,-9.354 0,-9.354 H -1.006 V 0 Z m -2.981,-11.224 h 3.017 c 1.976,0 2.945,1.141 2.945,3.237 v 6.622 c 0,2.094 -0.969,3.236 -2.945,3.236 h -3.017 z"
   style="fill:#231f20;fill-opacity:1;fill-rule:nonzero;stroke:none"
   transform="matrix(0.95536,0,0,-0.9918,416.236,758.516)"
   id="path110259" />

    </g>
  <g
     id="g110245"
     transform="matrix(0.03263867,0,0,0.03263867,590.58624,214.00541)"
     style="opacity:0.7">
    <path
       style="fill:#004990;fill-opacity:1"
       d="M 0,0 H 1024 V 768 H 0 Z"
       id="path110241" />
    <path
       d="m 730.1,387.8 v -8.6 h 217.6 v 8.6 z m -652.8,0 v -8.6 h 217.6 v 8.6 z m 430.9,213.3 h 8.6 v 89.6 h -8.6 z m 0,-524.8 h 8.6 v 89.6 h -8.6 z M 703.6,383.2 H 512.3 l 34.5,-36 -30.2,-135.5 c 0,-1.5 1.4,-1.5 1.4,0 l 40.3,126.8 z M 657.5,357.3 C 647.5,296.7 600,247.7 538.1,236.2 l 4.4,11.5 c 51.8,11.5 93.5,53.3 105,106.7 z M 512.3,573.5 V 383.2 l 34.5,33.2 136.6,-28.9 c 0,0 1.5,1.5 0,1.5 l -128,40.3 z m 24.4,-44.7 c 61.9,-10.1 110.8,-59.1 120.8,-119.6 l -11.5,4.3 c -11.5,51.9 -53.2,93.7 -105,103.8 z M 320.9,383.2 h 191.4 l -34.6,34.6 30.2,135.5 c 0,1.5 -1.4,1.5 -1.4,0 L 466.2,426.5 Z m 46.1,24.5 c 10,60.6 57.5,109.6 119.4,121.1 L 482,517.3 C 430.3,505.7 388.5,463.9 377,410.6 Z M 512.3,191.5 v 191.7 l -34.6,-34.6 -136.6,28.8 c 0,0 -1.5,-1.4 0,-1.4 l 128,-40.4 z m -24.5,44.7 C 425.9,246.3 377,295.3 367,355.8 l 11.5,-4.3 c 11.5,-51.9 53.2,-93.7 105,-103.8 z"
       fill="#ffffff"
       id="path110243" />
  </g>
</svg>
