<svg xmlns="http://www.w3.org/2000/svg" xml:space="preserve" width="72.216" height="37.485" viewBox="0 0 19.108 9.918">
    <defs>
        <clipPath id="a" clipPathUnits="userSpaceOnUse">
            <path d="M382.829 777.026c-4.488 0-8.125-3.776-8.125-8.435v-11.245c0-4.658 3.637-8.434 8.125-8.434h37.913c4.487 0 8.124 3.776 8.124 8.434v11.245c0 4.659-3.637 8.435-8.124 8.435z"/>
        </clipPath>
        <clipPath id="j" clipPathUnits="userSpaceOnUse"/>
        <clipPath id="i" clipPathUnits="userSpaceOnUse"/>
        <clipPath id="d" clipPathUnits="userSpaceOnUse"/>
        <clipPath id="c" clipPathUnits="userSpaceOnUse"/>
        <clipPath id="b" clipPathUnits="userSpaceOnUse"/>
    </defs>
    <g clip-path="url(#a)" transform="matrix(.35279 0 0 -.35279 -132.19 274.125)">
        <path d="M-31.59-15.312h56.693v28.346H-31.59Z" style="fill:#33b540;fill-opacity:1;fill-rule:nonzero;stroke:none" transform="matrix(.95536 0 0 -.9918 404.884 761.84)"/>
        <path d="M0 0h56.693v28.346H0Z" style="fill:none;stroke:#33b540;stroke-width:17.008;stroke-linecap:round;stroke-linejoin:round;stroke-miterlimit:10;stroke-dasharray:none;stroke-opacity:1" transform="matrix(.95536 0 0 -.9918 374.704 777.026)"/>
        <path d="M0 0h2.784l1.311 9.503L5.406 0h2.783v13.095H6.322V3.18l-1.473 9.915H3.197L1.725 3.18v9.915H0Z" style="fill:#231f20;fill-opacity:1;fill-rule:nonzero;stroke:none" transform="matrix(.95536 0 0 -.9918 384.627 769.648)"/>
        <path d="M0 0v-7.146c0-.935-.395-1.291-1.023-1.291-.629 0-1.024.356-1.024 1.291V0c0 .936.395 1.291 1.024 1.291C-.395 1.291 0 .936 0 0m-4.022-.131v-6.884c0-2.095 1.059-3.293 2.999-3.293 1.939 0 2.999 1.198 2.999 3.293v6.884c0 2.096-1.06 3.293-2.999 3.293S-4.022 1.965-4.022-.131" style="fill:#231f20;fill-opacity:1;fill-rule:nonzero;stroke:none" transform="matrix(.95536 0 0 -.9918 397.56 759.61)"/>
        <path d="M0 0h1.993l1.312 10.289L4.615 0H6.43L4.525 13.095H1.903Z" style="fill:#231f20;fill-opacity:1;fill-rule:nonzero;stroke:none" transform="matrix(.95536 0 0 -.9918 400.182 769.648)"/>
        <path d="M0 0h5.388v1.87H1.976v3.461h2.711v1.871H1.976v4.022h3.412v1.871H0Z" style="fill:#231f20;fill-opacity:1;fill-rule:nonzero;stroke:none" transform="matrix(.95536 0 0 -.9918 407.231 769.648)"/>
        <path d="M0 0c.629 0 1.006-.336 1.006-1.271v-6.81c0-.936-.377-1.273-1.006-1.273h-1.006V0Zm-2.981-11.224H.036c1.976 0 2.945 1.141 2.945 3.237v6.622c0 2.094-.969 3.236-2.945 3.236h-3.017z" style="fill:#231f20;fill-opacity:1;fill-rule:nonzero;stroke:none" transform="matrix(.95536 0 0 -.9918 416.236 758.516)"/>
    </g>
    <g clip-path="url(#b)" style="opacity:.0019989" transform="matrix(.33704 0 0 .3499 12.331 5.016)">
        <path d="M0 0h2.784l1.311 9.503L5.406 0h2.783v13.095H6.322V3.18l-1.473 9.915H3.197L1.725 3.18v9.915H0Z" style="fill:#fff;fill-opacity:1;fill-rule:nonzero;stroke:none" transform="translate(-21.203 -7.873)"/>
    </g>
    <g clip-path="url(#c)" style="opacity:.0019989" transform="matrix(.33704 0 0 .3499 12.331 5.016)">
        <path d="M0 0v-7.146c0-.935-.395-1.291-1.023-1.291-.629 0-1.024.356-1.024 1.291V0c0 .936.395 1.291 1.024 1.291C-.395 1.291 0 .936 0 0m-4.022-.131v-6.884c0-2.095 1.059-3.293 2.999-3.293 1.939 0 2.999 1.198 2.999 3.293v6.884c0 2.096-1.06 3.293-2.999 3.293S-4.022 1.965-4.022-.131" style="fill:#fff;fill-opacity:1;fill-rule:nonzero;stroke:none" transform="translate(-7.666 2.247)"/>
    </g>
    <g clip-path="url(#d)" style="opacity:.0019989" transform="matrix(.33704 0 0 .3499 12.331 5.016)">
        <path d="M0 0h1.993l1.312 10.289L4.615 0H6.43L4.525 13.095H1.903Z" style="fill:#fff;fill-opacity:1;fill-rule:nonzero;stroke:none" transform="translate(-4.92 -7.873)"/>
    </g>
    <g clip-path="url(#i)" style="opacity:.0019989" transform="matrix(.33704 0 0 .3499 12.331 5.016)">
        <path d="M0 0h5.388v1.87H1.976v3.461h2.711v1.871H1.976v4.022h3.412v1.871H0Z" style="fill:#fff;fill-opacity:1;fill-rule:nonzero;stroke:none" transform="translate(2.457 -7.873)"/>
    </g>
    <g clip-path="url(#j)" style="opacity:.0019989" transform="matrix(.33704 0 0 .3499 12.331 5.016)">
        <path d="M0 0c.629 0 1.006-.336 1.006-1.271v-6.81c0-.936-.377-1.273-1.006-1.273h-1.006V0Zm-2.981-11.224H.036c1.976 0 2.945 1.141 2.945 3.237v6.622c0 2.094-.969 3.236-2.945 3.236h-3.017z" style="fill:#fff;fill-opacity:1;fill-rule:nonzero;stroke:none" transform="translate(11.883 3.35)"/>
    </g>
</svg>
